<?xml version="1.0" encoding="UTF-8" standalone="no"?>
<svg xmlns:svg="http://www.w3.org/2000/svg" xmlns="http://www.w3.org/2000/svg" version="1.1" style="overflow:visible" viewBox="-250 -250 500 500" height="500px" width="500px">
  <rect fill-opacity="0" fill="rgb(0,0,0)" height="500" width="500" y="-250" x="-250" />
  <svg version="1.1" y="-250" x="-250" viewBox="-250 -250 500 500" height="500px" width="500px" style="overflow:visible">
    <g transform="rotate(0,0,0)" stroke-linejoin="round" fill="#fff">
      <path stroke-linecap="butt" stroke-linejoin="round" stroke="none" fill="rgb(239,239,239)" d="m-19.941001-156.6799c0 28.1944 1.09426 39.6658-12.1172 49.9429c22.2211 10.2266 43.2122 5.68106 64.1092 0c-13.2074-10.2762-12.1124-21.7456-12.1124-49.9381z" />
      <path stroke-linecap="butt" stroke-linejoin="round" stroke="none" fill="rgb(239,209,132)" d="m-32.056002-106.735001c-0.60188 0.46639-1.22319 0.93278-1.88331 1.39918c-9.30005 6.51979-26.376 11.5821-26.842 27.0702v235.023c0 11.2129 8.97969 20.2395 20.1339 20.2395h40.6465v0.01h40.6464c11.1542 0 20.1436-9.02665 20.1436-20.2395v-235.023c-0.46597-15.4881-17.5516-20.5602-26.8517-27.08c-0.66012-0.4664-1.28142-0.93279-1.8833-1.39918z" />
      <path stroke-linecap="butt" stroke-linejoin="round" stroke="none" fill="rgb(255,236,185)" d="m-0.001001-89.313l-32.822001 19.0444l-26.2984-15.2647c-0.98049 2.14736-1.58237 4.54734-1.66974 7.26796v3.83803l22.7744 13.2048v36.1163l-22.7744-6.13113v10.8242l22.7744 6.13113v17.1691h10.397v-14.3707l13.3094 3.5854l2.69876-10.0955l-16.0081-4.31414v-38.9147l27.6186-16.0226l27.6186 16.0226v38.9147l-16.0081 4.31414l2.69877 10.0955l13.3094-3.5854v14.3707h10.397v-17.1691l22.7744-6.13113v-10.8242l-22.7744 6.13113v-36.1163l22.7744-13.2145v-3.82832c-0.0874-2.72062-0.68925-5.1206-1.66973-7.26796l-26.2984 15.2647zm-60.7901 120.932v10.4453h48.568v-10.4453zm73.0122 0v10.4453h48.568v-10.4453zm-50.2377 42.1017v17.1691l-22.7744 6.13113v10.8145l22.7744-6.13113v36.1163l-22.7744 13.2145v5.72303c0 2.03076 0.30094 3.99349 0.85428 5.84935l27.1138-15.7408l32.822 19.0444l32.822-19.0444l27.1138 15.7408c0.55334-1.85586 0.85428-3.81859 0.85428-5.84935v-5.72303l-22.7744-13.2145v-36.1163l22.7744 6.13113v-10.8145l-22.7744-6.13113v-17.1691h-10.397v14.361l-13.3094-3.5854l-2.69877 10.0955l16.008099 4.31413v38.9147l-27.6186 16.0225v0.01l-27.6186-16.0323v-38.9147l16.008099-4.31413l-2.69876-10.0955l-13.3094 3.59511v-14.3707z" />
      <path stroke-linecap="butt" stroke-linejoin="round" stroke="none" fill="rgb(255,211,36)" d="m-0.001001-115.548c-13.5229 0-24.483 5.09146-24.483 11.378c0 6.27688 10.9601 11.3683 24.483 11.3683a24.482 11.3732 0 0 0 24.483-11.3683a24.482 11.3732 0 0 0-24.483-11.378z" />
      <path stroke-linecap="butt" stroke-linejoin="round" stroke="none" fill="rgb(255,211,36)" d="m-23.969-42.120001h47.938c10.9892 0 19.8359 8.89091 19.8359 19.9344v120.971c0 11.0438-8.84698 19.9344-19.8359 19.9344h-47.938c-10.9892 0-19.8359-8.89091-19.8359-19.9344v-120.971c0-11.0438 8.84699-19.9344 19.8359-19.9344z" />
      <path stroke-linecap="butt" stroke-linejoin="round" stroke="none" fill="rgb(78,78,78)" d="m-1.293001-20.136c-1.07659 0-1.85812 0.67834-1.85812 1.6966c0 0.97583 0.78163 1.69659 1.85812 1.69659c1.05544 0 1.83728-0.72077 1.83728-1.69659c0-1.01829-0.78184-1.6966-1.83728-1.6966zm-15.085 0.2543v16.928h3.08108v-8.167961c0.88656-0.86975 1.49959-1.33602 2.47056-1.33602c1.16095 0 1.66852 0.65791 1.66852 2.48227v7.02171h3.10194v-7.40316c0-2.99113-1.09768-4.77286-3.6518-4.77286c-1.6043 0-2.76445 0.84733-3.71435 1.73834l0.12703-2.22607v-4.26426h-3.08297zm30.3861 0v16.928h3.01851v-2.96999l1.70834-1.95091l2.87252 4.9209h3.356l-4.47656-7.02171l4.09546-4.85826h-3.37686l-4.09547 5.13344h-0.0834v-10.1815h-3.0185zm-50.9753 1.22975l3.01852 15.6982h3.82053l1.71024-7.76374c0.2533-1.2304 0.46393-2.44047 0.675-3.62851h0.0834c0.18997 1.18795 0.42359 2.39811 0.67689 3.62851l1.75195 7.76374h3.88311l2.89337-15.6982h-2.9768l-1.22485 7.65746c-0.23222 1.63344-0.46363 3.31109-0.69585 5.00817h-0.10617c-0.33772-1.69708-0.65385-3.39591-0.99164-5.00817l-1.81641-7.65746h-2.65826l-1.81643 7.65746c-0.33779 1.63344-0.67499 3.33227-0.99162 5.00817h-0.0853c-0.23223-1.6759-0.48448-3.35345-0.7167-5.00817l-1.24571-7.65746zm44.4017 3.51654c-2.65973 0-4.38935 1.5049-4.38935 3.64749c0 1.97284 1.73029 2.88493 3.22898 3.45772c1.24531 0.48791 2.47055 0.89105 2.47055 1.78199c0 0.74247-0.52818 1.25253-1.71024 1.25253c-1.09776 0-2.11106-0.46693-3.1664-1.29428l-1.41446 1.95091c1.16105 0.97583 2.91239 1.67761 4.49554 1.67761c3.08192 0 4.70789-1.67672 4.70789-3.75567c0-2.20623-1.73136-2.99089-3.29344-3.58486c-1.24541-0.46671-2.40607-0.78503-2.40607-1.65484c0-0.67884 0.506959-1.14625 1.56234-1.14625c0.88655 0 1.70968 0.42508 2.55397 1.019099l1.3936-1.88827c-0.99214-0.74247-2.30191-1.46318-4.03291-1.46318zm17.9803 0.29985l4.60171 11.6674l-0.21047 0.70028c-0.33779 1.039469-1.013301 1.80287-2.21648 1.80287c-0.27447 0-0.61174-0.0843-0.82288-0.14803l-0.57071 2.39687c0.46445 0.1485 0.92834 0.23342 1.62491 0.23342c2.63857 0 3.90675-1.61208 4.94111-4.41229l4.19975-12.2406h-2.9768l-1.62492 5.51679c-0.27438 1.10312-0.56936 2.24831-0.84374 3.35144h-0.10618c-0.33771-1.14548-0.63276-2.29079-0.99163-3.35144l-1.87898-5.51679h-3.12469zm-28.2701 0.002v11.88h3.08299v-11.88z" />
      <path stroke-linecap="butt" stroke-linejoin="round" stroke="none" fill="rgb(78,78,78)" d="m-16.203001 54.762999c0.81299-0.0177 1.45305 0.6425 1.4353 1.48002l-0.13329 6.30933c1.65974 1.47925 2.78885 5.34934 2.7207 8.57882c-0.0868 4.10513-2.10173 6.90378-4.51557 6.95654c-2.41384 0.0529-4.31239-2.66019-4.2256-6.76532c0.068-3.22948 1.3621-7.15253 3.08591-8.70581l0.13336-6.30933c0.0177-0.83753 0.68618-1.52647 1.49908-1.54425zm8.13327-14.157c0.81299-0.0177 1.45306 0.64251 1.4353 1.48002l-0.13338 6.30933c1.65984 1.47924 2.78895 5.34933 2.7207 8.57881c-0.0867 4.105139-2.10163 6.90379-4.51557 6.95655c-2.41374 0.0529-4.31229-2.66019-4.2255-6.76533c0.068-3.22948 1.3621-7.15252 3.08591-8.70581l0.13328-6.30933c0.0177-0.83754 0.68626-1.52646 1.49918-1.54424zm8.133179-14.157c0.81307-0.0178 1.45306 0.64251 1.43529 1.48002l-0.13329 6.30933c1.65984 1.47924 2.78895 5.34934 2.7207 8.57882c-0.0868 4.10513-2.10173 6.90378-4.51557 6.95654c-2.41374 0.0529-4.31229-2.66019-4.2255-6.76532c0.068-3.22948 1.362-7.15253 3.08591-8.70581l0.13328-6.30933c0.0177-0.83755 0.68617-1.52647 1.49908-1.54425zm8.13327-14.157c0.81297-0.0178 1.45305 0.64251 1.43529 1.48003l-0.13329 6.30932c1.65974 1.47934 2.78885 5.34934 2.7207 8.57882c-0.0868 4.10513-2.10173 6.90379-4.51557 6.95655c-2.41384 0.0529-4.31229-2.66019-4.2256-6.76533c0.068-3.22948 1.3621-7.15253 3.08591-8.70581l0.13337-6.30933c0.0177-0.83755 0.68617-1.52646 1.49908-1.54425zm24.2966 14.0967c-0.39103-0.71643-1.28007-0.94333-1.99301-0.50916l-5.37034 3.27068c-2.10464-0.70489-6.00425 0.24738-8.75311 1.92144c-3.49421 2.12812-4.89834 5.28103-3.737 7.40827s4.44849 2.42301 7.9428 0.29497c2.74885-1.67406 5.48256-4.76168 5.95921-7.03865l5.37044-3.27068c0.71279-0.43423 0.97223-1.36051 0.58102-2.07691zm-24.3995 42.4719c-0.39112-0.71642-1.28015-0.94332-1.99299-0.509141l-5.37034 3.27068c-2.10465-0.7049-6.00426 0.24738-8.75311 1.92144c-3.49422 2.12802-4.89845 5.28103-3.73701 7.40827c1.16134 2.12724 4.44849 2.42301 7.9428 0.29497c2.74876-1.67406 5.48256-4.76168 5.95922-7.03865l5.37043-3.27068c0.7128-0.43423 0.97224-1.36051 0.58102-2.07691zm8.13327-14.157c-0.39112-0.71642-1.28016-0.94333-1.993-0.509141l-5.37034 3.27068c-2.10474-0.70491-6.00435 0.24738-8.7532 1.92144c-3.49422 2.12801-4.89835 5.28103-3.73701 7.40827c1.16144 2.12723 4.44859 2.42301 7.9428 0.29497c2.74876-1.67406 5.48266-4.76168 5.95931-7.03865l5.37043-3.27068c0.71281-0.43421 0.97224-1.36051 0.58103-2.07691zm8.13327-14.157c-0.39112-0.71642-1.28016-0.94331-1.993-0.509141l-5.37034 3.27068c-2.10475-0.70491-6.00436 0.24738-8.75321 1.92144c-3.49422 2.12802-4.89835 5.28103-3.73701 7.40827c1.16134 2.12714 4.44859 2.42301 7.9428 0.29495c2.74876-1.67406 5.48266-4.76168 5.95922-7.03865l5.37043-3.27068c0.71289-0.43422 0.97234-1.3605 0.58111-2.076901zm3.04669-33.4977c-0.69515-0.40336-1.59441-0.13662-2.01621 0.59761l-3.17755 5.53104c-2.21046 0.4898-5.2089 3.30459-6.83533 6.13569c-2.06737 3.59871-1.78206 6.9855 0.2821 8.18316c2.064169 1.19766 5.12532-0.24735 7.19279-3.84609c1.62644-2.83101 2.55286-6.84801 1.86982-9.01674l3.17754-5.53104c0.42179-0.73423 0.20207-1.65025-0.49317-2.053581zm-42.2938 73.6192c0.80636 0.46785 1.06164 1.53006 0.57237 2.38162l-11.0047 19.1552c-0.48922 0.85158-1.53218 1.16055-2.3385 0.69265c-0.80637-0.46785-1.06165-1.53007-0.57237-2.38162l11.0047-19.1552c0.48922-0.85156 1.53219-1.16054 2.33851-0.69267z" />
      <path stroke-linecap="butt" stroke-linejoin="round" stroke-width="6" stroke-opacity="1" stroke="rgb(78,78,78)" fill="none" d="m-19.941001-156.6799c0 29.477 1.20911 40.6743-13.9986 51.3392c-9.30228 6.52367-26.3809 11.5908-26.8459 27.0751v235.023c0 11.2138 8.98368 20.2424 20.1417 20.2424h81.2871c11.1581 0 20.1417-9.02831 20.1417-20.2424v-235.023c-0.46537-15.4842-17.5439-20.5514-26.8459-27.0751c-15.2082-10.6649-13.9986-21.8622-13.9986-51.3392z" />
      <path stroke-linecap="butt" stroke-linejoin="round" stroke-width="6" stroke-opacity="1" stroke="rgb(78,78,78)" fill="rgb(255,211,36)" d="m-17.572001-177.0001c-3.34753 0-6.04309 2.70897-6.04309 6.07312v20.4669h47.2215v-20.4669c0-3.36415-2.69556-6.07312-6.04309-6.07312z" />
    </g>
  </svg>
</svg>
